<svg width="80" height="80" viewBox="0 0 80 80" fill="none" xmlns="http://www.w3.org/2000/svg">
<circle cx="40" cy="40" r="40" fill="#0B5147"/>
<path fill-rule="evenodd" clip-rule="evenodd" d="M25.3333 31.9999C25.3333 28.318 28.3181 25.3333 32 25.3333H34.6667C35.403 25.3333 36 25.9302 36 26.6666C36 27.403 35.403 27.9999 34.6667 27.9999H32C29.7909 27.9999 28 29.7908 28 31.9999V33.9999C28 34.7363 27.403 35.3333 26.6667 35.3333C25.9303 35.3333 25.3333 34.7363 25.3333 33.9999V31.9999Z" fill="white"/>
<path fill-rule="evenodd" clip-rule="evenodd" d="M54.6667 48.0001C54.6667 51.682 51.6819 54.6667 48 54.6667L45.3333 54.6667C44.5969 54.6667 44 54.0698 44 53.3334C44 52.597 44.5969 52.0001 45.3333 52.0001L48 52.0001C50.2091 52.0001 52 50.2092 52 48.0001L52 46.0001C52 45.2637 52.5969 44.6667 53.3333 44.6667C54.0697 44.6667 54.6667 45.2637 54.6667 46.0001L54.6667 48.0001Z" fill="white"/>
<path fill-rule="evenodd" clip-rule="evenodd" d="M48 25.3333C51.6819 25.3333 54.6667 28.318 54.6667 31.9999L54.6667 34.6666C54.6667 35.403 54.0697 35.9999 53.3333 35.9999C52.5969 35.9999 52 35.403 52 34.6666L52 31.9999C52 29.7908 50.2091 27.9999 48 27.9999L46 27.9999C45.2636 27.9999 44.6667 27.403 44.6667 26.6666C44.6667 25.9302 45.2636 25.3333 46 25.3333L48 25.3333Z" fill="white"/>
<path fill-rule="evenodd" clip-rule="evenodd" d="M32 54.6667C28.3181 54.6667 25.3333 51.682 25.3333 48.0001L25.3333 45.3334C25.3333 44.597 25.9303 44.0001 26.6667 44.0001C27.403 44.0001 28 44.597 28 45.3334L28 48.0001C28 50.2092 29.7909 52.0001 32 52.0001L34 52.0001C34.7364 52.0001 35.3333 52.597 35.3333 53.3334C35.3333 54.0698 34.7364 54.6667 34 54.6667L32 54.6667Z" fill="white"/>
<path fill-rule="evenodd" clip-rule="evenodd" d="M33.7239 41.7238C34.2446 41.2031 35.0888 41.2031 35.6095 41.7238C35.6038 41.7181 35.6049 41.7188 35.6147 41.7252C35.6453 41.7452 35.7598 41.82 36.0128 41.9254C36.3104 42.0494 36.7021 42.1761 37.1567 42.2897C38.0715 42.5184 39.1284 42.6666 40 42.6666C40.8716 42.6666 41.9285 42.5184 42.8433 42.2897C43.2979 42.1761 43.6896 42.0494 43.9872 41.9254C44.2402 41.82 44.3547 41.7452 44.3853 41.7252C44.3951 41.7188 44.3962 41.7181 44.3905 41.7238C44.9112 41.2031 45.7554 41.2031 46.2761 41.7238C46.7968 42.2445 46.7968 43.0887 46.2761 43.6094C45.9194 43.9662 45.4286 44.2137 45.0128 44.3869C44.5604 44.5754 44.0354 44.7404 43.49 44.8768C42.4049 45.1481 41.1284 45.3333 40 45.3333C38.8716 45.3333 37.5951 45.1481 36.5099 44.8768C35.9645 44.7404 35.4396 44.5754 34.9872 44.3869C34.5714 44.2137 34.0806 43.9662 33.7239 43.6094C33.2032 43.0887 33.2032 42.2445 33.7239 41.7238Z" fill="white"/>
</svg>
