<svg width="180" height="180" viewBox="0 0 180 180" fill="none" xmlns="http://www.w3.org/2000/svg">
<rect x="15" y="15" width="150" height="150" rx="75" fill="#F1FAF3"/>
<circle cx="90" cy="90" r="90" fill="#0FD790" fill-opacity="0.1"/>
<path d="M130.013 57.0382C130.013 56.8174 130 56.5899 129.98 56.3691C129.966 56.2621 129.946 56.1551 129.933 56.048C129.913 55.9276 129.899 55.8072 129.879 55.6867C129.853 55.5663 129.819 55.4526 129.792 55.3322C129.766 55.2251 129.746 55.1181 129.712 55.0177C129.679 54.904 129.632 54.7902 129.592 54.6765C129.552 54.5695 129.518 54.4691 129.478 54.3621C129.431 54.255 129.384 54.1547 129.337 54.0543C129.291 53.9473 129.237 53.8402 129.184 53.7399C129.13 53.6395 129.07 53.5458 129.016 53.4522C128.956 53.3518 128.896 53.2448 128.829 53.1444C128.762 53.0374 128.682 52.9437 128.608 52.8434C128.548 52.7564 128.488 52.6761 128.421 52.5891C128.28 52.4152 128.127 52.2479 127.966 52.0874C127.966 52.0874 127.959 52.0807 127.953 52.074C127.953 52.074 127.946 52.0673 127.939 52.0606C127.779 51.9 127.611 51.7462 127.438 51.6057C127.357 51.5388 127.264 51.4785 127.177 51.4116C127.076 51.338 126.983 51.2645 126.876 51.1909C126.775 51.124 126.668 51.0638 126.561 51.0035C126.467 50.95 126.38 50.8898 126.28 50.8363C126.173 50.7761 126.059 50.7292 125.952 50.6757C125.852 50.6289 125.752 50.582 125.651 50.5352C125.544 50.4884 125.437 50.4549 125.323 50.4148C125.216 50.3747 125.109 50.3345 124.996 50.3011C124.889 50.2676 124.775 50.2409 124.661 50.2141C124.547 50.1873 124.44 50.1539 124.32 50.1338C124.193 50.1071 124.059 50.0937 123.932 50.0736C123.832 50.0602 123.738 50.0401 123.638 50.0334C123.403 50.0134 123.169 50 122.935 50H94.1544C90.2474 50 87.083 53.1645 87.083 57.0716C87.083 60.9787 90.2474 64.1432 94.1544 64.1432H105.869L78.1986 91.8142C74.586 95.427 70.4181 94.0956 69.2273 93.6005C68.0364 93.1055 64.1428 91.0984 64.1428 85.9937V57.0716C64.1428 53.1645 60.9784 50 57.0714 50C53.1644 50 50 53.1645 50 57.0716V85.9937C50 95.2129 55.2918 103.134 63.8083 106.66C66.6649 107.844 69.6086 108.419 72.5121 108.419C78.2722 108.419 83.8517 106.145 88.1869 101.809L115.857 74.1385V85.8532C115.857 89.7603 119.021 92.9248 122.928 92.9248C126.835 92.9248 130 89.7603 130 85.8532V57.0716C130 57.0716 130 57.0516 130 57.0449L130.013 57.0382Z" fill="#0FD790"/>
<path d="M122.949 115.857H57.0917C53.1847 115.857 50.0203 119.021 50.0203 122.928C50.0203 126.835 53.1847 130 57.0917 130H122.949C126.856 130 130.02 126.835 130.02 122.928C130.02 119.021 126.856 115.857 122.949 115.857Z" fill="#0FD790"/>
</svg>
