<svg width="177" height="54" viewBox="0 0 177 54" fill="none" xmlns="http://www.w3.org/2000/svg">
<path d="M27.8599 15.9479V28.0263C27.8599 33.6073 23.2817 38.1316 17.6342 38.1316C11.9868 38.1316 7.40856 33.6073 7.40856 28.0263V12.8684H4V28.0263C4 35.4677 10.1043 41.5 17.6342 41.5C25.1642 41.5 31.2684 35.4677 31.2684 28.0263V15.9479L35.5898 20.2182L38 17.8364L29.5642 9.5L21.1285 17.8364L23.5387 20.2182L27.8599 15.9479Z" fill="#65DB96"/>
<rect x="5" y="44.5" width="29" height="3" rx="1.5" fill="#65DB96"/>
<path d="M46.5955 43V10.2727H51.5334V25.9013H51.9329L65.6598 10.2727H71.8761L58.6765 25.0064L71.924 43H65.9794L55.4006 28.3782L51.5334 32.8207V43H46.5955ZM84.6322 43.4954C82.3311 43.4954 80.3229 42.968 78.6077 41.9134C76.8925 40.8587 75.5608 39.3832 74.6127 37.4869C73.6645 35.5906 73.1904 33.3746 73.1904 30.8391C73.1904 28.293 73.6645 26.0664 74.6127 24.1594C75.5608 22.2525 76.8925 20.7717 78.6077 19.717C80.3229 18.6623 82.3311 18.1349 84.6322 18.1349C86.9333 18.1349 88.9415 18.6623 90.6567 19.717C92.3719 20.7717 93.7036 22.2525 94.6517 24.1594C95.5999 26.0664 96.074 28.293 96.074 30.8391C96.074 33.3746 95.5999 35.5906 94.6517 37.4869C93.7036 39.3832 92.3719 40.8587 90.6567 41.9134C88.9415 42.968 86.9333 43.4954 84.6322 43.4954ZM84.6482 39.4844C86.1396 39.4844 87.3754 39.0902 88.3556 38.3018C89.3357 37.5135 90.0601 36.4641 90.5289 35.1538C91.0083 33.8434 91.248 32.3999 91.248 30.8232C91.248 29.2571 91.0083 27.8189 90.5289 26.5085C90.0601 25.1875 89.3357 24.1275 88.3556 23.3285C87.3754 22.5295 86.1396 22.13 84.6482 22.13C83.146 22.13 81.8996 22.5295 80.9088 23.3285C79.9287 24.1275 79.199 25.1875 78.7195 26.5085C78.2508 27.8189 78.0164 29.2571 78.0164 30.8232C78.0164 32.3999 78.2508 33.8434 78.7195 35.1538C79.199 36.4641 79.9287 37.5135 80.9088 38.3018C81.8996 39.0902 83.146 39.4844 84.6482 39.4844ZM119.8 24.4471L115.47 25.2141C115.289 24.6602 115.001 24.1328 114.607 23.6321C114.223 23.1314 113.701 22.7212 113.041 22.4016C112.38 22.082 111.555 21.9222 110.564 21.9222C109.211 21.9222 108.082 22.2259 107.176 22.8331C106.271 23.4297 105.818 24.2021 105.818 25.1502C105.818 25.9705 106.121 26.631 106.729 27.1317C107.336 27.6325 108.316 28.0426 109.669 28.3622L113.568 29.2571C115.827 29.7791 117.51 30.5835 118.618 31.6701C119.726 32.7567 120.28 34.1683 120.28 35.9048C120.28 37.375 119.854 38.6854 119.001 39.8359C118.16 40.9759 116.983 41.8707 115.47 42.5206C113.968 43.1705 112.226 43.4954 110.244 43.4954C107.496 43.4954 105.253 42.9094 103.517 41.7376C101.78 40.555 100.715 38.8771 100.321 36.7038L104.939 36.0007C105.227 37.2045 105.818 38.1154 106.713 38.7333C107.608 39.3406 108.774 39.6442 110.212 39.6442C111.778 39.6442 113.03 39.3192 113.968 38.6694C114.905 38.0089 115.374 37.2045 115.374 36.2564C115.374 35.4893 115.086 34.8448 114.511 34.3228C113.946 33.8008 113.078 33.4066 111.906 33.1403L107.751 32.2294C105.461 31.7074 103.767 30.8764 102.67 29.7365C101.583 28.5966 101.04 27.1531 101.04 25.4059C101.04 23.957 101.445 22.6893 102.254 21.6026C103.064 20.516 104.183 19.669 105.61 19.0618C107.038 18.4439 108.673 18.1349 110.516 18.1349C113.169 18.1349 115.257 18.7102 116.78 19.8608C118.304 21.0007 119.31 22.5295 119.8 24.4471ZM130.311 28.4261V43H125.533V10.2727H130.247V22.4496H130.551C131.126 21.1286 132.005 20.0792 133.188 19.3015C134.37 18.5238 135.915 18.1349 137.822 18.1349C139.505 18.1349 140.975 18.4812 142.233 19.1737C143.5 19.8661 144.48 20.8995 145.173 22.2738C145.876 23.6374 146.228 25.342 146.228 27.3874V43H141.449V27.9627C141.449 26.1623 140.986 24.7667 140.059 23.7759C139.132 22.7745 137.843 22.2738 136.192 22.2738C135.063 22.2738 134.051 22.5135 133.156 22.9929C132.272 23.4723 131.574 24.1754 131.062 25.1023C130.562 26.0185 130.311 27.1264 130.311 28.4261ZM168.152 32.8207V18.4545H172.946V43H168.248V38.7493H167.992C167.428 40.0597 166.522 41.1516 165.276 42.0252C164.04 42.8881 162.501 43.3196 160.658 43.3196C159.081 43.3196 157.685 42.9734 156.471 42.2809C155.267 41.5778 154.319 40.5391 153.626 39.1648C152.945 37.7905 152.604 36.0913 152.604 34.0671V18.4545H157.382V33.4918C157.382 35.1644 157.845 36.4961 158.772 37.4869C159.699 38.4776 160.903 38.973 162.383 38.973C163.278 38.973 164.168 38.7493 165.052 38.3018C165.947 37.8544 166.687 37.1779 167.273 36.2724C167.87 35.3668 168.163 34.2163 168.152 32.8207Z" fill="white"/>
</svg>
