<svg width="48" height="48" viewBox="0 0 48 48" fill="none" xmlns="http://www.w3.org/2000/svg">
<circle cx="24" cy="24" r="24" fill="white"/>
<path d="M24.6183 22.1969C24.5978 23.5899 26.0616 24.3673 27.1642 24.8295C28.2971 25.3036 28.6776 25.6078 28.6731 26.0319C28.6647 26.6808 27.7695 26.9673 26.9318 26.9784C25.4702 26.9979 24.6204 26.639 23.9449 26.3675L23.4184 28.4867C24.0962 28.7554 25.3513 28.9897 26.6528 29C29.7078 29 31.7065 27.7028 31.7174 25.6915C31.7293 23.1388 27.6128 22.9976 27.6409 21.8566C27.6506 21.5106 28.0344 21.1415 28.8753 21.0476C29.2916 21.0002 30.4406 20.9639 31.7434 21.4799L32.2547 19.4295C31.5541 19.2101 30.6537 19 29.5326 19C26.6571 19 24.6346 20.3149 24.6183 22.1969ZM37.1678 19.1766C36.61 19.1766 36.1399 19.4565 35.9301 19.8861L31.566 28.8494H34.6189L35.2264 27.4052H38.9569L39.3093 28.8494H42L39.652 19.1766H37.1678ZM37.5949 21.7896L38.4759 25.4218H36.0631L37.5949 21.7896ZM20.9169 19.1767L18.5106 28.8493H21.4197L23.8249 19.1765H20.9169M16.6134 19.1765L13.5855 25.7603L12.3606 20.1624C12.2169 19.5375 11.6493 19.1766 11.019 19.1766H6.06933L6 19.4575C7.01616 19.6472 8.17069 19.9531 8.87016 20.2804C9.29822 20.4804 9.42028 20.6552 9.56091 21.1303L11.8808 28.8494H14.955L19.6682 19.1766H16.6134" fill="url(#paint0_linear_4706_8056)"/>
<defs>
<linearGradient id="paint0_linear_4706_8056" x1="22.5506" y1="29.2006" x2="22.7997" y2="18.9283" gradientUnits="userSpaceOnUse">
<stop stop-color="#222357"/>
<stop offset="1" stop-color="#254AA5"/>
</linearGradient>
</defs>
</svg>
